{
    "asset" : {
        "generator" : "Khronos glTF Blender I/O v1.1.46",
        "version" : "2.0"
    },
    "scene" : 0,
    "scenes" : [
        {
            "name" : "Scene",
            "nodes" : [
                0
            ]
        }
    ],
    "nodes" : [
        {
            "mesh" : 0,
            "name" : "Sphere"
        }
    ],
    "meshes" : [
        {
            "name" : "Sphere",
            "primitives" : [
                {
                    "attributes" : {
                        "POSITION" : 0,
                        "NORMAL" : 1,
                        "TEXCOORD_0" : 2
                    },
                    "indices" : 3
                }
            ]
        }
    ],
    "accessors" : [
        {
            "bufferView" : 0,
            "componentType" : 5126,
            "count" : 16128,
            "max" : [
                0.9920010566711426,
                0.9993925094604492,
                0.9920017123222351
            ],
            "min" : [
                -0.9920005798339844,
                -0.9993925094604492,
                -0.992000162601471
            ],
            "type" : "VEC3"
        },
        {
            "bufferView" : 1,
            "componentType" : 5126,
            "count" : 16128,
            "type" : "VEC3"
        },
        {
            "bufferView" : 2,
            "componentType" : 5126,
            "count" : 16128,
            "type" : "VEC2"
        },
        {
            "bufferView" : 3,
            "componentType" : 5123,
            "count" : 24192,
            "type" : "SCALAR"
        }
    ],
    "bufferViews" : [
        {
            "buffer" : 0,
            "byteLength" : 193536,
            "byteOffset" : 0
        },
        {
            "buffer" : 0,
            "byteLength" : 193536,
            "byteOffset" : 193536
        },
        {
            "buffer" : 0,
            "byteLength" : 129024,
            "byteOffset" : 387072
        },
        {
            "buffer" : 0,
            "byteLength" : 48384,
            "byteOffset" : 516096
        }
    ],
    "buffers" : [
        {
            "byteLength" : 564480,
            "uri" : "data:application/octet-stream;base64,"
        }
    ]
}
