{
    "asset" : {
        "generator" : "Khronos glTF Blender I/O v1.1.46",
        "version" : "2.0"
    },
    "scene" : 0,
    "scenes" : [
        {
            "name" : "Scene",
            "nodes" : [
                0
            ]
        }
    ],
    "nodes" : [
        {
            "mesh" : 0,
            "name" : "Cube"
        }
    ],
    "meshes" : [
        {
            "name" : "Cube.001",
            "primitives" : [
                {
                    "attributes" : {
                        "POSITION" : 0,
                        "NORMAL" : 1,
                        "TEXCOORD_0" : 2
                    },
                    "indices" : 3
                }
            ]
        }
    ],
    "accessors" : [
        {
            "bufferView" : 0,
            "componentType" : 5126,
            "count" : 11264,
            "max" : [
                0.975333034992218,
                5.140544414520264,
                1.5836453437805176
            ],
            "min" : [
                -0.975333034992218,
                -3.80564284324646,
                -1.3560339212417603
            ],
            "type" : "VEC3"
        },
        {
            "bufferView" : 1,
            "componentType" : 5126,
            "count" : 11264,
            "type" : "VEC3"
        },
        {
            "bufferView" : 2,
            "componentType" : 5126,
            "count" : 11264,
            "type" : "VEC2"
        },
        {
            "bufferView" : 3,
            "componentType" : 5123,
            "count" : 16896,
            "type" : "SCALAR"
        }
    ],
    "bufferViews" : [
        {
            "buffer" : 0,
            "byteLength" : 135168,
            "byteOffset" : 0
        },
        {
            "buffer" : 0,
            "byteLength" : 135168,
            "byteOffset" : 135168
        },
        {
            "buffer" : 0,
            "byteLength" : 90112,
            "byteOffset" : 270336
        },
        {
            "buffer" : 0,
            "byteLength" : 33792,
            "byteOffset" : 360448
        }
    ],
    "buffers" : [
        {
            "byteLength" : 394240,
            "uri" : "data:application/octet-stream;base64,"
        }
    ]
}
